<svg width="367" height="172" viewBox="0 0 367 172" fill="none" xmlns="http://www.w3.org/2000/svg">
<path d="M366.211 100.7L340.011 145.3V171.9H321.511V145L295.311 100.7H316.511L330.811 127.4L345.411 100.7H366.211Z" fill="#5F0080"/>
<path d="M279.023 100.6L305.623 171.9H286.423L281.823 158.9H257.223L252.523 171.9H233.523L260.223 100.6H279.023ZM277.623 145.5L269.623 120.6L261.423 145.5H277.623Z" fill="#5F0080"/>
<path d="M165.144 171.9V100.8H195.644C206.644 100.8 215.144 103.8 221.344 110C227.544 116.2 230.644 124.8 230.644 136C230.644 147.9 227.544 156.9 221.544 162.9C215.444 168.9 206.444 171.9 194.644 171.9H165.144ZM183.644 156.5H193.844C205.844 156.5 211.944 149.8 211.944 136.5C211.944 130 210.244 125 206.944 121.5C203.644 117.9 198.844 116.2 192.544 116.2H183.644V156.5Z" fill="#5F0080"/>
<path d="M152.101 100.7V171.9H133.401V100.7H152.101Z" fill="#5F0080"/>
<path d="M61.0328 171.9V100.7H98.1328C105.133 100.7 110.933 102.5 115.433 106C119.933 109.5 122.233 114.6 122.233 121.3C122.233 129.6 118.533 135.4 111.233 138.7C115.933 140.3 118.933 143.4 120.233 147.9C121.033 150.9 121.833 155.9 122.433 163C122.433 163.2 122.433 163.7 122.533 164.4C122.533 165.1 122.633 165.6 122.633 165.8C122.633 166.1 122.733 166.5 122.833 167.1C122.833 167.7 122.933 168.1 123.033 168.4C123.133 168.7 123.233 169.1 123.433 169.5C123.533 170 123.733 170.4 123.933 170.8C124.133 171.2 124.433 171.5 124.733 171.9H105.833C105.233 170.7 104.833 169.2 104.633 167.6C104.333 166 104.133 164 104.033 161.6C103.833 159.3 103.733 157.8 103.733 157C103.233 152.8 102.033 149.8 100.233 148C98.3328 146.3 95.2328 145.4 91.0328 145.4H79.6328V171.9H61.0328ZM79.6328 132.2H92.7328C96.2328 132.2 98.9328 131.6 100.933 130.4C102.933 129.2 103.933 126.9 103.933 123.4C103.933 117.9 100.133 115.1 92.5328 115.1H79.6328V132.2Z" fill="#5F0080"/>
<path d="M52.6 100.7V116.2H18.7V129.9H48.1V144.5H18.7V171.9H0V100.7H52.6Z" fill="#5F0080"/>
<path d="M344.89 1.70001L318.49 29.6L348.19 72.9H325.09L305.89 43L298.29 50.9V72.9H279.89V1.70001H298.09V28.9L321.89 1.70001H344.89Z" fill="#5F0080"/>
<path d="M251.411 45.1H269.911C269.811 47.9 269.511 50 269.111 51.6C268.711 53.2 267.811 55.2 266.611 57.7C261.011 69 251.211 74.6 237.211 74.6C226.311 74.6 217.611 71.1 211.211 64.1C204.811 57.1 201.611 48.1 201.611 37.1C201.611 26.2 204.911 17.3 211.611 10.4C218.211 3.5 226.911 0 237.511 0C245.811 0 253.111 2.5 259.311 7.3C265.511 12.2 268.911 18.7 269.511 26.8H251.211C249.611 19.4 244.911 15.6 237.111 15.6C232.011 15.6 227.911 17.6 224.911 21.6C221.911 25.6 220.411 30.9 220.411 37.5C220.411 44 221.911 49.2 224.911 53C227.911 56.9 232.011 58.8 237.111 58.8C245.311 58.8 250.011 54.3 251.411 45.1Z" fill="#5F0080"/>
<path d="M171.601 1.60004L198.201 72.9H179.001L174.401 59.9001H149.801L145.101 72.9H126.101L152.801 1.60004H171.601ZM170.201 46.5L162.201 21.6L154.001 46.5H170.201Z" fill="#5F0080"/>
<path d="M124.168 56.9V72.9H72.268V1.70001H90.968V56.9H124.168Z" fill="#5F0080"/>
<path d="M0 72.9V1.70001H35.8C42.5 1.70001 48 3.20001 52.3 6.00001C56.6 8.90001 58.8 13.4 58.8 19.6C58.8 23 58 25.9 56.5 28.1C54.9 30.4 52.6 32.4 49.5 34.1C58 36.9 62.3 42.7 62.3 51.6C62.3 58.3 59.9 63.6 55.3 67.5C53.3 69.1 51.1 70.4 48.7 71.2C46.2 72 44 72.5 42.2 72.7C40.3 72.9 37.8 72.9 34.6 72.9H0ZM18.2 29.7L31.5 29.8C37.6 29.8 40.7 27.5 40.7 22.9C40.7 20.2 39.8 18.4 38.1 17.4C36.3 16.4 34 15.9 31 15.9H18.2V29.7ZM18.2 58.3H32.9C36.2 58.3 38.8 57.7 40.7 56.6C42.5 55.5 43.5 53.4 43.5 50.2C43.5 47 42.5 44.9 40.5 43.7C38.5 42.5 35.8 42 32.4 42H18.2V58.3Z" fill="#5F0080"/>
</svg>
