<svg width="261" height="174" viewBox="0 0 261 174" fill="none" xmlns="http://www.w3.org/2000/svg">
<path d="M259.742 100.7V115.7H221.242V128H256.442V142.4H221.242V156.3H260.642V171.9H202.742V100.7H259.742Z" fill="#5F0080"/>
<path d="M193.509 155.9V171.9H141.609V100.7H160.309V155.9H193.509Z" fill="#5F0080"/>
<path d="M109.399 100.6L135.999 171.9H116.799L112.199 158.9H87.5992L82.8992 171.9H63.8992L90.5992 100.6H109.399ZM107.999 145.5L99.9992 120.6L91.7992 145.5H107.999Z" fill="#5F0080"/>
<path d="M59.4 122.1L41.7 122.2C41.3 116.4 37.4 113.5 30.1 113.5C27.1 113.5 24.8 114 23.2 115.1C21.5 116.2 20.7 117.7 20.7 119.6C20.7 121 21 122.2 21.8 123C22.6 123.8 24 124.4 26.1 125C38.5 128.2 46.8 130.9 51.2 132.9C58.6 136.3 62.3 142.1 62.3 150.2C62.3 157.3 59.5 163 54 167.2C48.5 171.4 41.1 173.6 31.8 173.6C21.9 173.6 14.2 171.3 8.6 166.9C3 162.4 0.1 156.1 0 148.1H18.7C18.7 155.6 23.4 159.4 33 159.4C40 159.4 43.6 157 43.6 152.2C43.6 150.2 42.9 148.7 41.5 147.6C40.1 146.5 37.7 145.5 34.2 144.6C27.4 142.7 21.6 140.8 16.6 138.9C7.3 135.6 2.7 129.7 2.7 121.2C2.7 114.5 5.2 109.2 10.4 105.2C15.6 101.2 22.6 99.2 31.4 99.2C40.2 99.2 47.1 101.2 51.9 105.1C56.7 109.1 59.2 114.7 59.4 122.1Z" fill="#5F0080"/>
<path d="M82.232 72.9V1.69998H100.832L126.532 46.7L125.732 1.69998H143.732V72.9H125.632L99.632 27.2L100.132 72.9H82.232Z" fill="#5F0080"/>
<path d="M72.2 37.4C72.2 48.2 69 57.1 62.7 64.1C56.4 71.1 48 74.6 37.5 74.6C26.6 74.6 17.9 71.2 11.5 64.2C5 57.3 1.8 48.3 1.8 37.3C1.8 26.6 5 17.7 11.6 10.6C18.2 3.6 26.7 0 37.3 0C47.9 0 56.3 3.4 62.7 10.2C69 17 72.2 26 72.2 37.4ZM53.2 36.9C53.2 30.1 51.7 24.8 48.9 21C46 17.1 42.1 15.2 37.1 15.2C32.1 15.2 28.1 17.1 25.2 21.1C22.2 25.1 20.8 30.4 20.8 37.2C20.8 44.1 22.2 49.5 25.1 53.4C28 57.4 32 59.3 37.2 59.3C42.2 59.3 46.2 57.4 49 53.4C51.8 49.5 53.2 44 53.2 36.9Z" fill="#5F0080"/>
</svg>
