<svg width="346" height="41" viewBox="0 0 346 41" fill="none" xmlns="http://www.w3.org/2000/svg">
<path d="M330.471 0C335.266 0 339.046 1.80536 341.81 5.41607C344.575 9.02678 345.929 13.9351 345.929 20.2538C345.929 26.5726 344.518 31.4809 341.698 34.9788C338.877 38.4767 334.928 40.2256 329.85 40.2256C324.998 40.2256 321.162 38.4202 318.397 34.9224C315.633 31.3681 314.222 26.4598 314.222 20.1974C314.222 17.4894 314.561 15.007 315.125 12.6375C315.746 10.268 316.648 8.1241 317.889 6.20591C319.131 4.28772 320.823 2.82087 322.967 1.69252C325.111 0.564173 327.593 0 330.471 0ZM330.132 7.7856C327.875 7.7856 326.183 8.80111 325.111 10.8321C324.039 12.8632 323.531 16.0225 323.531 20.3103C323.531 21.2694 323.531 22.1156 323.588 22.849C323.588 23.5825 323.7 24.4851 323.813 25.5571C323.926 26.5726 324.152 27.4753 324.434 28.2087C324.772 28.9421 325.111 29.6755 325.562 30.3526C326.014 31.0296 326.634 31.5937 327.424 31.9887C328.214 32.3272 329.117 32.5528 330.132 32.5528C331.599 32.5528 332.84 32.1015 333.799 31.3116C334.758 30.4654 335.435 29.2806 335.774 27.8138C336.169 26.2905 336.394 24.9929 336.507 23.8646C336.62 22.7362 336.676 21.4386 336.676 19.8589C336.676 18.2792 336.62 16.9252 336.507 15.7404C336.394 14.5557 336.112 13.3145 335.717 11.9605C335.266 10.6065 334.589 9.59096 333.686 8.85753C332.727 8.1241 331.542 7.7856 330.132 7.7856Z" fill="#5F0080"/>
<path d="M288.559 13.3145H279.476C279.476 9.25245 280.83 5.98024 283.594 3.61071C286.302 1.24118 289.969 0 294.483 0C298.94 0 302.494 1.01551 305.146 2.99012C307.741 5.02115 309.095 7.67276 309.095 11.0014C309.095 12.9196 308.587 14.5557 307.572 15.9097C306.556 17.2637 305.259 18.1664 303.566 18.5613C305.71 19.1255 307.402 20.1974 308.644 21.7207C309.828 23.244 310.449 25.1057 310.449 27.3624C310.449 31.5937 308.869 34.8095 305.71 37.0098C302.551 39.2665 298.827 40.3384 294.483 40.3384C289.857 40.3384 286.02 39.2101 282.974 36.8406C279.927 34.5274 278.46 31.086 278.46 26.5162V25.5007H287.6C287.656 27.8138 288.164 29.5063 289.18 30.6346C290.139 31.763 291.831 32.2707 294.201 32.2707C296.119 32.2707 297.699 31.8194 298.827 30.9167C299.955 30.014 300.52 28.7729 300.52 27.1932C300.52 25.6699 299.955 24.4851 298.827 23.5825C297.699 22.6798 296.119 22.2284 294.144 22.2284C293.58 22.2284 292.621 22.2849 291.267 22.2849V15.8533C291.718 15.9097 292.226 15.9097 292.79 15.9097C293.862 15.9097 294.991 15.8533 296.232 15.684C297.36 15.5712 298.319 15.1199 298.996 14.4428C299.673 13.7658 300.012 12.8632 300.012 11.8477C300.012 10.6065 299.504 9.53454 298.489 8.74469C297.473 7.95485 296.119 7.55993 294.483 7.55993C290.646 7.55993 288.672 9.47812 288.559 13.3145Z" fill="#5F0080"/>
<path d="M273.021 29.4498V39.605H262.81V29.4498H273.021Z" fill="#5F0080"/>
<path d="M248.881 0.282043V39.605H238.783V15.5712H229.361V8.51898C232.746 8.40615 235.398 7.78556 237.372 6.60079C239.347 5.41603 240.532 3.32858 240.926 0.282043L248.881 0.282043Z" fill="#5F0080"/>
<path d="M213.345 0.282043V39.605H203.246V15.5712H193.825V8.51898C197.21 8.40615 199.861 7.78556 201.836 6.60079C203.81 5.41603 204.995 3.32858 205.39 0.282043L213.345 0.282043Z" fill="#5F0080"/>
<path d="M181.378 18.6177H186.794C186.512 22.172 185.61 24.9929 184.086 27.1368C182.507 29.2806 180.589 30.2961 178.332 30.2961C176.752 30.2961 174.495 29.8448 171.505 28.8293C170.885 28.66 170.095 28.4344 169.192 28.0959C168.233 27.7574 167.613 27.5881 167.274 27.4753C166.936 27.3624 166.541 27.2496 166.033 27.1368C165.525 27.0239 165.13 26.9111 164.792 26.8547C164.453 26.8547 164.115 26.7983 163.776 26.7983C161.914 26.7983 160.842 27.8702 160.56 29.9576H155.257C155.314 28.2087 155.596 26.5162 156.16 24.8801C156.724 23.244 157.627 21.7771 158.981 20.4231C160.335 19.1255 161.914 18.4485 163.833 18.4485C164.397 18.4485 165.074 18.5613 165.864 18.6742C166.653 18.8434 167.33 19.0127 167.895 19.1255C168.402 19.2947 169.136 19.5204 170.095 19.8025C171.054 20.141 171.675 20.3103 171.957 20.3667C172.182 20.4795 172.69 20.5923 173.367 20.818C174.044 21.0437 174.552 21.2129 174.947 21.3258C175.342 21.4386 175.849 21.5514 176.414 21.6643C176.978 21.7771 177.486 21.8335 177.937 21.8335C178.952 21.8335 179.742 21.6079 180.306 21.1565C180.814 20.7052 181.153 19.8589 181.378 18.6177Z" fill="#5F0080"/>
<path d="M151.879 31.368V39.605H120.454V39.4921C120.454 38.1945 120.567 36.9534 120.793 35.825C121.018 34.6967 121.244 33.6812 121.583 32.7785C121.921 31.8758 122.429 31.0295 123.106 30.1269C123.783 29.2242 124.403 28.4908 124.968 27.9266C125.475 27.3624 126.265 26.629 127.394 25.8391C128.522 25.0493 129.425 24.3723 130.102 23.9209C130.779 23.4696 131.794 22.7926 133.261 21.8899C134.671 20.9872 135.8 20.2538 136.59 19.6896C138.677 18.2792 140.031 17.2073 140.652 16.4739C141.385 15.4583 141.78 14.3864 141.78 13.2016C141.78 11.6784 141.272 10.4936 140.313 9.59094C139.354 8.68826 138.056 8.29334 136.477 8.29334C132.415 8.29334 130.384 10.8885 130.384 16.1918H121.3C121.3 11.1142 122.598 7.16499 125.193 4.34412C127.788 1.46683 131.681 0.0563965 136.928 0.0563965C141.329 0.0563965 144.883 1.12833 147.478 3.38502C150.073 5.64172 151.427 8.63184 151.427 12.4682C151.427 13.5966 151.314 14.6685 151.089 15.684C150.863 16.6431 150.468 17.5458 149.848 18.4485C149.283 19.3511 148.776 20.0282 148.324 20.5923C147.929 21.1001 147.196 21.7771 146.124 22.5669C144.996 23.3568 144.262 23.9209 143.811 24.203C143.36 24.4851 142.401 25.0493 141.047 25.952C140.482 26.2905 139.749 26.7982 138.733 27.4188C137.718 28.0394 137.041 28.4908 136.646 28.7164C136.251 28.9985 135.743 29.3934 135.179 29.8448C134.559 30.2961 133.994 30.8039 133.43 31.368H151.879Z" fill="#5F0080"/>
<path d="M108.444 0.282043V39.605H98.3452V15.5712H88.9235V8.51898C92.3085 8.40615 94.9602 7.78556 96.9348 6.60079C98.9094 5.41603 100.094 3.32858 100.489 0.282043L108.444 0.282043Z" fill="#5F0080"/>
<path d="M79.1968 29.4498V39.605H68.9852V29.4498H79.1968Z" fill="#5F0080"/>
<path d="M55.0568 0.282043V39.605H44.958V15.5712H35.5363V8.51898C38.9214 8.40615 41.573 7.78556 43.5476 6.60079C45.5222 5.41603 46.707 3.32858 47.1019 0.282043L55.0568 0.282043Z" fill="#5F0080"/>
<path d="M19.5204 0.282043V39.605H9.4217L9.4217 15.5712H0L0 8.51898C3.38504 8.40615 6.03666 7.78556 8.01127 6.60079C9.98588 5.41603 11.1706 3.32858 11.5656 0.282043L19.5204 0.282043Z" fill="#5F0080"/>
</svg>
