<svg width="142" height="75" viewBox="0 0 142 75" fill="none" xmlns="http://www.w3.org/2000/svg">
<path d="M70.4 37.4C70.4 48.2 67.2 57.1 60.9 64.1C54.6 71.1 46.2 74.6 35.7 74.6C24.8 74.6 16.1 71.2 9.7 64.2C3.2 57.3 3.54052e-06 48.3 3.54052e-06 37.3C3.54052e-06 26.6 3.2 17.7 9.80001 10.6C16.4 3.59999 24.9 -8.92878e-06 35.5 -8.92878e-06C46.1 -8.92878e-06 54.5 3.39999 60.9 10.2C67.2 17 70.4 26 70.4 37.4ZM51.4 36.9C51.4 30.1 49.9 24.8 47.1 21C44.2 17.1 40.3 15.2 35.3 15.2C30.3 15.2 26.3 17.1 23.4 21.1C20.4 25.1 19 30.4 19 37.2C19 44.1 20.4 49.5 23.3 53.4C26.2 57.4 30.2 59.3 35.4 59.3C40.4 59.3 44.4 57.4 47.2 53.4C50 49.5 51.4 44 51.4 36.9ZM80.432 72.9V1.69999H99.032L124.732 46.7L123.932 1.69999H141.932V72.9H123.832L97.832 27.2L98.332 72.9H80.432Z" fill="black" fill-opacity="0.2"/>
</svg>
