<svg width="98" height="17" viewBox="0 0 98 17" fill="none" xmlns="http://www.w3.org/2000/svg">
<path d="M97.7305 0.339966V3.85997L96.7905 9.83997H95.1105L94.1905 3.91997V0.339966L97.7305 0.339966ZM97.7505 10.98V14.58H94.1505V10.98H97.7505Z" fill="#5F0080"/>
<path d="M79.4263 14.58V0.339966L83.1463 0.339966L88.2863 9.33997L88.1263 0.339966L91.7263 0.339966V14.58H88.1063L82.9063 5.43997L83.0063 14.58H79.4263Z" fill="#5F0080"/>
<path d="M73.0042 0.319946L78.3242 14.5799H74.4842L73.5642 11.9799H68.6442L67.7042 14.5799H63.9042L69.2442 0.319946L73.0042 0.319946ZM72.7242 9.29995L71.1242 4.31995L69.4842 9.29995H72.7242Z" fill="#5F0080"/>
<path d="M59.7084 9.02H63.4084C63.3884 9.58 63.3284 10 63.2484 10.32C63.1684 10.64 62.9884 11.04 62.7484 11.54C61.6284 13.8 59.6684 14.92 56.8684 14.92C54.6884 14.92 52.9484 14.22 51.6684 12.82C50.3884 11.42 49.7484 9.62 49.7484 7.42C49.7484 5.24 50.4084 3.46 51.7484 2.08C53.0684 0.700001 54.8084 0 56.9284 0C58.5884 0 60.0484 0.5 61.2884 1.46C62.5284 2.44 63.2084 3.74 63.3284 5.36H59.6684C59.3484 3.88 58.4084 3.12 56.8484 3.12C55.8284 3.12 55.0084 3.52 54.4084 4.32C53.8084 5.12 53.5084 6.18 53.5084 7.5C53.5084 8.8 53.8084 9.84 54.4084 10.6C55.0084 11.38 55.8284 11.76 56.8484 11.76C58.4884 11.76 59.4284 10.86 59.7084 9.02Z" fill="#5F0080"/>
<path d="M47.8286 4.61992L44.2886 4.63992C44.2086 3.47992 43.4286 2.89992 41.9686 2.89992C41.3686 2.89992 40.9086 2.99992 40.5886 3.21992C40.2486 3.43992 40.0886 3.73992 40.0886 4.11992C40.0886 4.39992 40.1486 4.63992 40.3086 4.79992C40.4686 4.95992 40.7486 5.07992 41.1686 5.19992C43.6486 5.83992 45.3086 6.37992 46.1886 6.77992C47.6686 7.45992 48.4086 8.61992 48.4086 10.2399C48.4086 11.6599 47.8486 12.7999 46.7486 13.6399C45.6486 14.4799 44.1686 14.9199 42.3086 14.9199C40.3286 14.9199 38.7886 14.4599 37.6686 13.5799C36.5486 12.6799 35.9686 11.4199 35.9486 9.81992H39.6886C39.6886 11.3199 40.6286 12.0799 42.5486 12.0799C43.9486 12.0799 44.6686 11.5999 44.6686 10.6399C44.6686 10.2399 44.5286 9.93992 44.2486 9.71992C43.9686 9.49992 43.4886 9.29992 42.7886 9.11992C41.4286 8.73992 40.2686 8.35992 39.2686 7.97992C37.4086 7.31992 36.4886 6.13992 36.4886 4.43992C36.4886 3.09992 36.9886 2.03992 38.0286 1.23992C39.0686 0.439918 40.4686 0.039917 42.2286 0.039917C43.9886 0.039917 45.3686 0.439918 46.3286 1.21992C47.2886 2.01992 47.7886 3.13992 47.8286 4.61992Z" fill="#5F0080"/>
<path d="M16.0664 14.58V0.339966L23.4864 0.339966C24.8864 0.339966 26.0464 0.699966 26.9464 1.39997C27.8464 2.09997 28.3064 3.11997 28.3064 4.45997C28.3064 6.11997 27.5664 7.27997 26.1064 7.93997C27.0464 8.25997 27.6464 8.87997 27.9064 9.77997C28.0664 10.38 28.2264 11.38 28.3464 12.8C28.3464 12.84 28.3464 12.94 28.3664 13.08C28.3664 13.22 28.3864 13.32 28.3864 13.36C28.3864 13.42 28.4064 13.5 28.4264 13.62C28.4264 13.74 28.4464 13.82 28.4664 13.88C28.4864 13.94 28.5064 14.02 28.5464 14.1C28.5664 14.2 28.6064 14.28 28.6464 14.36C28.6864 14.44 28.7464 14.5 28.8064 14.58H25.0264C24.9064 14.34 24.8264 14.04 24.7864 13.72C24.7264 13.4 24.6864 13 24.6664 12.52C24.6264 12.06 24.6064 11.76 24.6064 11.6C24.5064 10.76 24.2664 10.16 23.9064 9.79997C23.5264 9.45997 22.9064 9.27997 22.0664 9.27997H19.7864V14.58H16.0664ZM19.7864 6.63997H22.4064C23.1064 6.63997 23.6464 6.51997 24.0464 6.27997C24.4464 6.03997 24.6464 5.57997 24.6464 4.87997C24.6464 3.77997 23.8864 3.21997 22.3664 3.21997H19.7864V6.63997Z" fill="#5F0080"/>
<path d="M14.02 14.2799L12.32 16.0799L10.26 14.0999C9.38 14.6599 8.26 14.9599 6.9 14.9599C4.86 14.9599 3.2 14.2599 1.92 12.8999C0.64 11.5199 0 9.7399 0 7.5599C0 5.3599 0.66 3.5399 2 2.1399C3.34 0.719898 5.04 0.0198975 7.12 0.0198975C9.18 0.0198975 10.84 0.699898 12.12 2.0999C13.4 3.4999 14.04 5.3199 14.04 7.5999C14.04 8.6199 13.9 9.5199 13.62 10.2799C13.34 11.0399 12.86 11.7999 12.22 12.5399L14.02 14.2799ZM8.32 8.7599L9.74 10.0999C10.1 9.5199 10.28 8.6999 10.28 7.6399C10.28 6.1599 10 5.0399 9.44 4.2399C8.88 3.4399 8.08 3.0599 7.04 3.0599C6.04 3.0599 5.24 3.4399 4.64 4.2399C4.04 5.0399 3.76 6.0999 3.76 7.4599C3.76 8.8199 4.04 9.9199 4.62 10.7399C5.2 11.5399 5.98 11.9599 6.98 11.9599C7.3 11.9599 7.62 11.8799 7.98 11.7399L6.68 10.4999L8.32 8.7599Z" fill="#5F0080"/>
</svg>
