<svg width="261" height="75" viewBox="0 0 261 75" fill="none" xmlns="http://www.w3.org/2000/svg">
<path d="M259.742 1.5V16.5H221.242V28.8H256.442V43.2H221.242V57.1H260.642V72.7H202.742V1.5H259.742Z" fill="black" fill-opacity="0.2"/>
<path d="M193.509 56.7V72.7H141.609V1.5H160.309V56.7H193.509Z" fill="black" fill-opacity="0.2"/>
<path d="M109.399 1.39999L135.999 72.7H116.799L112.199 59.7H87.5992L82.8992 72.7H63.8992L90.5992 1.39999H109.399ZM107.999 46.3L99.9992 21.4L91.7992 46.3H107.999Z" fill="black" fill-opacity="0.2"/>
<path d="M59.4 22.9L41.7 23C41.3 17.2 37.4 14.3 30.1 14.3C27.1 14.3 24.8 14.8 23.2 15.9C21.5 17 20.7 18.5 20.7 20.4C20.7 21.8 21 23 21.8 23.8C22.6 24.6 24 25.2 26.1 25.8C38.5 29 46.8 31.7 51.2 33.7C58.6 37.1 62.3 42.9 62.3 51C62.3 58.1 59.5 63.8 54 68C48.5 72.2 41.1 74.4 31.8 74.4C21.9 74.4 14.2 72.1 8.6 67.7C3 63.2 0.1 56.9 0 48.9H18.7C18.7 56.4 23.4 60.2 33 60.2C40 60.2 43.6 57.8 43.6 53C43.6 51 42.9 49.5 41.5 48.4C40.1 47.3 37.7 46.3 34.2 45.4C27.4 43.5 21.6 41.6 16.6 39.7C7.3 36.4 2.7 30.5 2.7 22C2.7 15.3 5.2 10 10.4 6C15.6 2 22.6 0 31.4 0C40.2 0 47.1 2 51.9 5.9C56.7 9.9 59.2 15.5 59.4 22.9Z" fill="black" fill-opacity="0.2"/>
</svg>
